<svg xmlns="http://www.w3.org/2000/svg" viewBox="0 0 512 512"><path d="M171 473c13.644-.018 13.616-15.629-.028-15.663L35 457c-27.284 0-27.284-38.035 0-38h122c13.644 0 13.644-16.003 0-16H25c-27.284-.064-27.284-37.885 0-38h125c13.644-.028 14.014-15.913 0-16H35c-27.288 0-27.288-39 0-39 54.678.234 103.718 0 163 0l-54.379-38.53c-25.795-17.942-5.971-53.58 20.466-38.79l136.442 77.575C330 329 300 422 355 422s30.985-65.129 55-65h102l.004 123.92H327.816c0 31.03-81.864 31.03-81.864 31.03L75 512c-27.288 0-27.288-39.006 0-39zm184.101-217.046c-54.576 0 0-124.12 0-124.12s54.577 124.12 0 124.12zM30 137L300 2l40 80L75 227c-60 30-105-60-45-90zM292 25l-93 47h116z"/></svg>