<svg style="height: 512px; width: 512px;" xmlns="http://www.w3.org/2000/svg" viewBox="0 0 512 512"><path d="M161.134 284.622c64.925 34.988 143.092 34.988 208.018 0a9.145 9.145 0 00-8.696-16.089c-59.498 32.06-131.127 32.06-190.625 0a9.145 9.145 0 00-8.697 16.089zM325.804 204.167a130.262 130.262 0 01-121.322 0 9.145 9.145 0 00-8.697 16.089 146.367 146.367 0 0069.357 17.464 146.378 146.378 0 0069.357-17.464 9.144 9.144 0 003.696-12.393c-2.4-4.442-7.948-6.097-12.391-3.696z"/><path d="M178.482 252.328c54.063 29.286 119.259 29.286 173.321 0a9.142 9.142 0 10-8.749-16.054c-48.609 26.31-107.213 26.31-155.822 0a9.13 9.13 0 00-12.402 3.652 9.131 9.131 0 003.652 12.402zM0 283.435h64v228.571H0zM508.8 367.366a4.997 4.997 0 01-.548-.731 15.748 15.748 0 00-17.189-4.846L321.829 418.2a46.553 46.553 0 01-14.537 2.377h-81.28a72.718 72.718 0 00-40.503 12.251l-6.766 4.48a9.103 9.103 0 11-10.058-15.178l6.674-4.48a90.908 90.908 0 0150.651-15.36h55.589a23.912 23.912 0 001.371-26.606l-.823-1.371a36.675 36.675 0 00-31.36-17.737H202.97a92.676 92.676 0 01-57.783-20.297 74.617 74.617 0 00-46.445-16.274H82.286v182.857h222.172a54.264 54.264 0 0028.525-8.046l171.429-104.32a15.643 15.643 0 007.315-10.514 15.97 15.97 0 00-2.927-12.616zM265.143 182.863c50.495 0 91.429-40.934 91.429-91.429 0-50.495-40.934-91.429-91.429-91.429-50.495 0-91.429 40.934-91.429 91.429.083 50.461 40.969 91.346 91.429 91.429zM199.04 60.075a73.685 73.685 0 0145.166-38.766 9.323 9.323 0 0111.429 6.126 9.172 9.172 0 01-6.126 11.429 54.71 54.71 0 00-33.92 29.074 9.15 9.15 0 01-8.321 5.211 8.188 8.188 0 01-3.839-.914 9.162 9.162 0 01-4.389-12.16z"/></svg>