<?xml version="1.0" encoding="iso-8859-1"?>
<!-- Generator: Adobe Illustrator 19.0.0, SVG Export Plug-In . SVG Version: 6.00 Build 0)  -->
<svg version="1.1" id="Capa_1" xmlns="http://www.w3.org/2000/svg" xmlns:xlink="http://www.w3.org/1999/xlink" x="0px" y="0px"
	 viewBox="0 0 512.013 512.013" style="enable-background:new 0 0 512.013 512.013;" xml:space="preserve">
<g>
	<g>
		<g>
			<path d="M161.134,284.622L161.134,284.622c64.925,34.988,143.092,34.988,208.018,0c4.43-2.408,6.075-7.947,3.678-12.383
				c-2.398-4.436-7.933-6.094-12.374-3.706c-59.498,32.06-131.127,32.06-190.625,0c-4.441-2.387-9.977-0.729-12.374,3.706
				C155.059,276.675,156.704,282.215,161.134,284.622z"/>
			<path d="M325.804,204.167c-37.972,19.982-83.349,19.982-121.322,0c-4.443-2.401-9.991-0.747-12.393,3.696
				c-2.401,4.443-0.747,9.991,3.696,12.393c21.319,11.467,45.15,17.468,69.357,17.464c24.207,0.003,48.038-5.997,69.357-17.464
				c4.443-2.401,6.098-7.95,3.696-12.393C335.795,203.421,330.247,201.766,325.804,204.167z"/>
			<path d="M178.482,252.328c54.063,29.286,119.259,29.286,173.321,0c2.882-1.555,4.712-4.534,4.797-7.808s-1.588-6.343-4.385-8.046
				c-2.797-1.703-6.292-1.779-9.161-0.2c-48.609,26.31-107.213,26.31-155.822,0c-2.128-1.164-4.632-1.433-6.959-0.748
				s-4.285,2.268-5.443,4.4c-1.163,2.128-1.431,4.632-0.746,6.958S176.351,251.169,178.482,252.328z"/>
			<rect y="283.435" width="64" height="228.571"/>
			<path d="M508.8,367.366c-0.205-0.227-0.388-0.471-0.548-0.731c-4.171-5.022-11.009-6.95-17.189-4.846l-169.234,56.411
				c-4.689,1.559-9.596,2.361-14.537,2.377h-81.28c-14.417-0.022-28.515,4.243-40.503,12.251l-6.766,4.48
				c-2.711,1.821-6.19,2.05-9.117,0.6s-4.852-4.356-5.047-7.616c-0.194-3.26,1.372-6.375,4.106-8.162l6.674-4.48
				c14.987-10.031,32.618-15.377,50.651-15.36h55.589c5.813-7.769,6.354-18.281,1.371-26.606l-0.823-1.371
				c-6.629-10.993-18.523-17.721-31.36-17.737h-47.817c-21.005-0.022-41.379-7.179-57.783-20.297
				c-13.196-10.521-29.569-16.258-46.445-16.274H82.286v182.857l222.172,0c10.071,0.017,19.947-2.769,28.525-8.046l171.429-104.32
				c3.827-2.3,6.489-6.126,7.315-10.514C512.577,375.553,511.514,370.97,508.8,367.366z"/>
			<path d="M265.143,182.863c50.495,0,91.429-40.934,91.429-91.429c0-50.495-40.934-91.429-91.429-91.429
				c-50.495,0-91.429,40.934-91.429,91.429C173.797,141.895,214.683,182.78,265.143,182.863z M199.04,60.075
				c8.934-18.698,25.329-32.77,45.166-38.766c4.838-1.376,9.896,1.335,11.429,6.126c1.463,4.847-1.279,9.963-6.126,11.429
				c-14.929,4.423-27.266,14.998-33.92,29.074c-1.528,3.204-4.772,5.235-8.321,5.211c-1.335,0.013-2.653-0.301-3.839-0.914
				C198.868,70.08,196.906,64.645,199.04,60.075z"/>
		</g>
	</g>
</g>
<g>
</g>
<g>
</g>
<g>
</g>
<g>
</g>
<g>
</g>
<g>
</g>
<g>
</g>
<g>
</g>
<g>
</g>
<g>
</g>
<g>
</g>
<g>
</g>
<g>
</g>
<g>
</g>
<g>
</g>
</svg>
