<svg xmlns="http://www.w3.org/2000/svg" viewBox="0 0 512 512"><path d="M512 10.697c0-5.385-4.021-9.926-9.354-10.583-5.854-.812-10.354 2.781-11.667 8-6.333 25.373-86.917 60.725-142.125 77.714-4.458 1.385-7.521 5.521-7.521 10.197 0 53.985-108.432 164.502-205.259 246.393-4.999-10.014-8.074-21.142-8.074-33.072a10.66 10.66 0 00-10.667-10.666H74.667A10.66 10.66 0 0064 309.346c0 28.086 8.452 54.21 22.865 76.072l-48.66 41.706C16.802 429.391 0 447.335 0 469.336 0 492.866 19.146 512 42.667 512c21.686 0 39.453-16.324 42.125-37.302l51.168-43.859c19.807 10.919 42.536 17.166 66.707 17.166a10.66 10.66 0 0010.667-10.666v-42.664a10.66 10.66 0 00-10.667-10.666c-2.555 0-4.971-.503-7.461-.754C508.137 199.618 512 18.492 512 10.697z"/></svg>