<svg xmlns="http://www.w3.org/2000/svg" viewBox="0 0 512 512"><path d="M404.587 290.748a7.02 7.02 0 00-6.216-1.936l-66.026 12.1L122.912 91.469l40.951-2.62c6.012-.384 8.764-7.68 4.504-11.936A242.438 242.438 0 0061.474 14.708L8.896.236C3.656-1.204-1.156 3.604.284 8.844l14.48 52.58a242.454 242.454 0 0062.198 106.898c4.26 4.26 11.551 1.508 11.935-4.504l2.62-40.957L300.95 332.308l-12.1 66.03a7.008 7.008 0 001.937 6.211c35.126 35.122 70.25 70.245 105.372 105.37 3.992 3.992 10.82 1.864 11.84-3.688C413.052 479 417.052 452 421.052 423c28-5 57.224-9.897 85.228-15.01 5.552-1.017 7.68-7.849 3.688-11.837a390470.866 390470.866 0 00-105.38-105.405z"/></svg>